<?xml version="1.0" encoding="UTF-8"?>
<svg id="Layer_2" data-name="Layer 2" xmlns="http://www.w3.org/2000/svg" viewBox="0 0 477.61 484.28">
  <g id="Layer_1-2" data-name="Layer 1">
    <path d="M225.05,0c10.14,2.46,20.51,4.22,30.37,7.52,17.8,5.96,33.07,16.28,46.06,29.85,2.05,2.14,3.94,3.02,6.96,2.46,63.05-11.65,125.26,28.68,140.33,90.97,5.07,20.96,4.81,41.91-1.18,62.65-1.01,3.49-.55,5.76,1.75,8.51,55.35,65.99,25.7,168.19-56.57,194.06-8.67,2.73-13.28,6.61-16.88,15.1-19.58,46.12-65.36,74.67-115.39,73.1-33.4-1.05-61.54-13.86-84.84-37.71-1.29-1.32-4.07-2.17-5.89-1.82-66.48,12.48-132.23-33.88-142.73-100.51-2.91-18.45-1.8-36.5,3.42-54.32,.82-2.8,.39-4.51-1.41-6.68C-29.61,212.8,4.88,107.71,93.96,84.92c1.78-.46,3.76-2.58,4.48-4.4C114.88,38.85,144.88,12.89,188.41,2.57c4.5-1.07,9.09-1.72,13.65-2.57,7.66,0,15.33,0,22.99,0ZM91.62,119.7c-23.02,8.69-39.64,23.49-50.18,44.47-20.77,41.33-6.62,92.38,32.87,116.5,32.36,19.76,65.55,38.17,98.43,57.08,1.2,.69,3.36,.99,4.45,.37,13.02-7.33,25.92-14.87,39.35-22.64-2.06-1.23-3.6-2.18-5.17-3.08-36.01-20.8-71.93-41.77-108.11-62.26-8.47-4.79-11.84-11.01-11.75-20.57,.31-33.83,.12-67.66,.12-101.49v-8.38Zm115.38,311.64c.33,.62,.43,.97,.65,1.19,.47,.47,.98,.9,1.51,1.3,19.8,15.05,42.26,21.27,66.68,17.82,46.13-6.52,78.43-43.55,78.92-90,.39-36.33,.13-72.66-.06-108.99-.01-1.96-1.65-4.7-3.35-5.74-11.51-7-23.24-13.64-34.91-20.37-.77-.44-1.66-.68-3.03-1.23,0,2.6,0,4.57,0,6.54,0,41.66-.12,83.33,.09,124.99,.04,8.96-3.22,14.98-11.13,19.44-24.35,13.71-48.46,27.85-72.66,41.84-7.58,4.38-15.14,8.81-22.71,13.21Zm84.25-132.88c-2.41,1.26-4.01,2.04-5.54,2.92-36.58,21.1-73.19,42.14-109.69,63.37-7.1,4.13-13.51,4.04-20.58-.09-30.59-17.85-61.3-35.47-91.98-53.16-1.38-.8-2.82-1.48-5.28-2.77,0,9.92-1.02,19.1,.16,27.99,8.2,61.81,76.84,97.02,131.83,67.21,33.17-17.98,65.5-37.5,98.14-56.44,1.32-.77,2.79-2.67,2.81-4.07,.2-14.64,.13-29.29,.13-44.97Zm-104.46-112.61c2.65-1.46,4.38-2.38,6.08-3.36,36.15-20.86,72.37-41.6,108.39-62.67,7.64-4.47,14.27-4.5,21.87,0,30.18,17.89,60.56,35.44,90.87,53.11,1.49,.87,3.03,1.66,5.18,2.83,0-10.41,1.19-20.16-.19-29.53-8.95-60.64-76.09-95.32-129.96-66.56-33.72,18-66.4,37.93-99.5,57.1-1.21,.7-2.6,2.41-2.61,3.67-.18,14.8-.12,29.6-.12,45.42Zm74.62-17.16c2.26,1.4,3.77,2.39,5.33,3.29,36.67,21.32,73.31,42.71,110.06,63.9,7.11,4.1,10.26,9.67,10.21,17.89-.19,35.16-.09,70.33-.07,105.49,0,1.73,.15,3.45,.23,5.31,.97-.23,1.46-.3,1.91-.47,.93-.34,1.87-.69,2.77-1.12,33.03-15.89,51.71-42.14,53.55-78.67,1.72-34.03-12.25-61.81-41.15-79.92-32.4-20.31-66.03-38.66-99.19-57.75-1.29-.74-3.67-.95-4.9-.26-12.76,7.16-25.39,14.56-38.77,22.3Zm10.07-115.92c-22.43-17.19-46.73-24.49-73.73-19.22-45.63,8.9-74.72,44.91-74.76,91.37-.03,31.81,.65,63.65-.35,95.43-.37,11.79,2.82,18.53,13.65,23.21,9.49,4.1,18.14,10.17,27.88,15.78,0-2.64,0-4.42,0-6.2,.02-42.14,.09-84.28,0-126.43-.02-8.1,3.03-13.88,10.24-17.92,16.1-9.02,31.99-18.41,47.97-27.65,16.1-9.31,32.19-18.61,49.1-28.38Zm-84.84,189.46h.12c0,8.83-.17,17.66,.14,26.48,.07,1.85,1.49,4.4,3.05,5.33,15.15,9,30.5,17.66,45.71,26.57,2.46,1.44,4.31,1.51,6.81,.04,15.04-8.85,30.16-17.58,45.33-26.22,2.42-1.38,3.54-2.86,3.52-5.79-.14-17.65-.13-35.31,0-52.96,.02-2.87-.92-4.44-3.43-5.87-15.34-8.68-30.53-17.62-45.91-26.22-1.59-.89-4.54-.88-6.13,.01-15.38,8.61-30.56,17.56-45.9,26.24-2.54,1.44-3.42,3.08-3.38,5.91,.15,8.82,.06,17.65,.06,26.48Z"/>
  </g>
</svg>